<svg width="1160" height="1160" viewBox="0 0 1160 1160" fill="none" xmlns="http://www.w3.org/2000/svg">
<rect x="80" y="80" width="1000" height="1000" rx="500" fill="white"/>
<rect x="80" y="80" width="1000" height="1000" rx="500" stroke="#227617" stroke-width="160"/>
<path d="M617.74 438.11C603.447 438.11 589.377 439.45 575.53 442.13C562.13 444.81 549.4 448.607 537.34 453.52C525.28 457.987 514.337 463.57 504.51 470.27V366.42C518.803 357.933 534.883 351.68 552.75 347.66C571.063 343.193 589.6 340.96 608.36 340.96C634.713 340.96 660.173 344.087 684.74 350.34C709.753 356.593 731.193 365.08 749.06 375.8L727.62 460.22C709.753 453.073 691.44 447.713 672.68 444.14C653.92 440.12 635.607 438.11 617.74 438.11ZM477.04 381.83V583.5C477.04 607.173 480.39 629.06 487.09 649.16C494.237 668.813 504.51 686.457 517.91 702.09H395.3C386.367 686.457 379.22 668.813 373.86 649.16C368.5 629.507 365.82 607.843 365.82 584.17C365.82 536.823 375.647 495.953 395.3 461.56C414.953 426.72 442.2 400.143 477.04 381.83ZM609.03 826.04C564.363 826.04 525.28 817.553 491.78 800.58C458.28 783.16 431.703 759.263 412.05 728.89H600.99C626.003 728.89 649.007 727.327 670 724.2C691.44 720.627 710.647 714.82 727.62 706.78L749.06 791.2C731.193 802.367 709.977 811.077 685.41 817.33C660.843 823.137 635.383 826.04 609.03 826.04Z" fill="#227617"/>
</svg>
