<svg width="1080" height="1080" viewBox="0 0 1080 1080" fill="none" xmlns="http://www.w3.org/2000/svg">
<rect x="40" y="40" width="1000" height="1000" rx="500" fill="white"/>
<rect x="40" y="40" width="1000" height="1000" rx="500" stroke="black" stroke-width="80"/>
<path d="M584.72 372.08C568.507 372.08 552.547 373.6 536.84 376.64C521.64 379.68 507.2 383.987 493.52 389.56C479.84 394.627 467.427 400.96 456.28 408.56V290.76C472.493 281.133 490.733 274.04 511 269.48C531.773 264.413 552.8 261.88 574.08 261.88C603.973 261.88 632.853 265.427 660.72 272.52C689.093 279.613 713.413 289.24 733.68 301.4L709.36 397.16C689.093 389.053 668.32 382.973 647.04 378.92C625.76 374.36 604.987 372.08 584.72 372.08ZM425.12 308.24V537C425.12 563.853 428.92 588.68 436.52 611.48C444.627 633.773 456.28 653.787 471.48 671.52H332.4C322.267 653.787 314.16 633.773 308.08 611.48C302 589.187 298.96 564.613 298.96 537.76C298.96 484.053 310.107 437.693 332.4 398.68C354.693 359.16 385.6 329.013 425.12 308.24ZM574.84 812.12C524.173 812.12 479.84 802.493 441.84 783.24C403.84 763.48 373.693 736.373 351.4 701.92H565.72C594.093 701.92 620.187 700.147 644 696.6C668.32 692.547 690.107 685.96 709.36 676.84L733.68 772.6C713.413 785.267 689.347 795.147 661.48 802.24C633.613 808.827 604.733 812.12 574.84 812.12Z" fill="black"/>
</svg>
