<svg width="1000" height="1000" viewBox="0 0 1000 1000" fill="none" xmlns="http://www.w3.org/2000/svg">
<rect width="1000" height="1000" rx="500" fill="#227617" style="mix-blend-mode:darken"/>
<path d="M553.6 330.4C536.533 330.4 519.733 332 503.2 335.2C487.2 338.4 472 342.933 457.6 348.8C443.2 354.133 430.133 360.8 418.4 368.8V244.8C435.467 234.667 454.667 227.2 476 222.4C497.867 217.067 520 214.4 542.4 214.4C573.867 214.4 604.267 218.133 633.6 225.6C663.467 233.067 689.067 243.2 710.4 256L684.8 356.8C663.467 348.267 641.6 341.867 619.2 337.6C596.8 332.8 574.933 330.4 553.6 330.4ZM385.6 263.2V504C385.6 532.267 389.6 558.4 397.6 582.4C406.133 605.867 418.4 626.933 434.4 645.6H288C277.333 626.933 268.8 605.867 262.4 582.4C256 558.933 252.8 533.067 252.8 504.8C252.8 448.267 264.533 399.467 288 358.4C311.467 316.8 344 285.067 385.6 263.2ZM543.2 793.6C489.867 793.6 443.2 783.467 403.2 763.2C363.2 742.4 331.467 713.867 308 677.6H533.6C563.467 677.6 590.933 675.733 616 672C641.6 667.733 664.533 660.8 684.8 651.2L710.4 752C689.067 765.333 663.733 775.733 634.4 783.2C605.067 790.133 574.667 793.6 543.2 793.6Z" fill="white"/>
</svg>
